<svg width="19" height="20" viewBox="0 0 19 20" fill="none" xmlns="http://www.w3.org/2000/svg">
<path fill-rule="evenodd" clip-rule="evenodd" d="M3.68125 13.7999C3.73656 13.7261 3.80827 13.6663 3.89072 13.625C3.97316 13.5838 4.06407 13.5624 4.15625 13.5624H7.125C7.28247 13.5624 7.4335 13.6249 7.54484 13.7363C7.65619 13.8476 7.71875 13.9987 7.71875 14.1561C7.71875 14.3136 7.65619 14.4646 7.54484 14.576C7.4335 14.6873 7.28247 14.7499 7.125 14.7499H4.45313L1.78125 18.3125H17.2188L14.5469 14.7499H11.875C11.7175 14.7499 11.5665 14.6873 11.4552 14.576C11.3438 14.4646 11.2812 14.3136 11.2812 14.1561C11.2812 13.9987 11.3438 13.8476 11.4552 13.7363C11.5665 13.6249 11.7175 13.5624 11.875 13.5624H14.8438C14.9359 13.5624 15.0268 13.5838 15.1093 13.625C15.1917 13.6663 15.2634 13.7261 15.3187 13.7999L18.8813 18.55C18.9474 18.6382 18.9877 18.7431 18.9976 18.8529C19.0075 18.9627 18.9866 19.0731 18.9373 19.1718C18.888 19.2704 18.8122 19.3533 18.7184 19.4113C18.6246 19.4693 18.5165 19.5 18.4062 19.5H0.59375C0.483484 19.5 0.375396 19.4693 0.281597 19.4113C0.187799 19.3533 0.111997 19.2704 0.0626841 19.1718C0.0133715 19.0731 -0.00750311 18.9627 0.00239944 18.8529C0.012302 18.7431 0.0525904 18.6382 0.11875 18.55L3.68125 13.7999Z" fill="#B0B0B0"/>
<path fill-rule="evenodd" clip-rule="evenodd" d="M9.5 1.68709C9.03217 1.68709 8.56891 1.77924 8.13669 1.95827C7.70447 2.13731 7.31174 2.39973 6.98093 2.73054C6.65012 3.06136 6.38771 3.4541 6.20868 3.88633C6.02965 4.31856 5.9375 4.78183 5.9375 5.24967C5.9375 5.71751 6.02965 6.18078 6.20868 6.61301C6.38771 7.04524 6.65012 7.43798 6.98093 7.7688C7.31174 8.09961 7.70447 8.36203 8.13669 8.54107C8.56891 8.7201 9.03217 8.81225 9.5 8.81225C10.4448 8.81225 11.351 8.43691 12.0191 7.7688C12.6872 7.10068 13.0625 6.19453 13.0625 5.24967C13.0625 4.30481 12.6872 3.39866 12.0191 2.73054C11.351 2.06243 10.4448 1.68709 9.5 1.68709ZM4.75 5.24967C4.75009 4.33554 5.01393 3.44085 5.50987 2.67296C6.00582 1.90507 6.7128 1.29659 7.54597 0.920546C8.37915 0.544498 9.30314 0.416851 10.2071 0.552923C11.111 0.688996 11.9564 1.08301 12.642 1.68768C13.3275 2.29235 13.8241 3.08199 14.072 3.96186C14.3199 4.84173 14.3087 5.77444 14.0396 6.64809C13.7706 7.52173 13.2552 8.29919 12.5553 8.88718C11.8554 9.47516 11.0007 9.8487 10.0938 9.96297V16.5312C10.0938 16.6887 10.0312 16.8397 9.91985 16.951C9.8085 17.0624 9.65747 17.1249 9.5 17.1249C9.34253 17.1249 9.19151 17.0624 9.08016 16.951C8.96881 16.8397 8.90625 16.6887 8.90625 16.5312V9.96415C7.7579 9.81947 6.70188 9.26047 5.93657 8.39215C5.17126 7.52383 4.74931 6.40713 4.75 5.24967Z" fill="#B0B0B0"/>
</svg>
