<svg width="16" height="16" viewBox="0 0 16 16" fill="none" xmlns="http://www.w3.org/2000/svg">
<g clip-path="url(#clip0_288_575)">
<path fill-rule="evenodd" clip-rule="evenodd" d="M15.4296 9.64172C15.7448 9.94802 15.7448 10.4446 15.4296 10.7509L10.5875 15.4569C10.3567 15.6813 10.0096 15.7484 9.70806 15.627C9.4065 15.5056 9.20987 15.2196 9.20987 14.9023L9.20988 0.784333C9.20988 0.351158 9.57119 -2.66413e-07 10.0169 -2.46931e-07C10.4626 -2.27449e-07 10.8239 0.351158 10.8239 0.784333L10.8239 13.0088L14.2884 9.64172C14.6035 9.33542 15.1145 9.33542 15.4296 9.64172ZM6.29064 0.373044C6.5922 0.494444 6.78882 0.780441 6.78882 1.09767L6.78882 15.2157C6.78882 15.6488 6.42751 16 5.98181 16C5.5361 16 5.17479 15.6488 5.17479 15.2157L5.17479 2.99122L1.71035 6.35828C1.39519 6.66458 0.884213 6.66458 0.569052 6.35828C0.253893 6.05198 0.253893 5.55537 0.569052 5.24906L5.41116 0.543066C5.64196 0.318749 5.98908 0.251644 6.29064 0.373044Z" fill="#4D4D4D"/>
</g>
<defs>
<clipPath id="clip0_288_575">
<rect width="16" height="16" fill="white" transform="translate(16) rotate(90)"/>
</clipPath>
</defs>
</svg>
