<svg width="17" height="24" viewBox="0 0 17 24" fill="none" xmlns="http://www.w3.org/2000/svg">
<path d="M14.4018 13.3512C13.6595 14.8779 12.6537 16.3988 11.6252 17.7644C10.6495 19.0518 9.60627 20.2851 8.5 21.4587C7.3937 20.2851 6.35047 19.0518 5.37483 17.7644C4.34633 16.3988 3.3405 14.8779 2.59817 13.3512C1.84733 11.8088 1.41667 10.3641 1.41667 9.125C1.41667 7.21876 2.16294 5.39059 3.49133 4.04267C4.81971 2.69475 6.62138 1.9375 8.5 1.9375C10.3786 1.9375 12.1803 2.69475 13.5087 4.04267C14.8371 5.39059 15.5833 7.21876 15.5833 9.125C15.5833 10.3641 15.1512 11.8088 14.4018 13.3512ZM8.5 23.5C8.5 23.5 17 15.3264 17 9.125C17 6.83751 16.1045 4.64371 14.5104 3.0262C12.9163 1.4087 10.7543 0.5 8.5 0.5C6.24566 0.5 4.08365 1.4087 2.48959 3.0262C0.895533 4.64371 3.35923e-08 6.83751 0 9.125C0 15.3264 8.5 23.5 8.5 23.5Z" fill="#B0B0B0"/>
<path d="M8.5 12C7.74855 12 7.02788 11.6971 6.49653 11.1579C5.96518 10.6188 5.66667 9.8875 5.66667 9.125C5.66667 8.3625 5.96518 7.63124 6.49653 7.09207C7.02788 6.5529 7.74855 6.25 8.5 6.25C9.25145 6.25 9.97212 6.5529 10.5035 7.09207C11.0348 7.63124 11.3333 8.3625 11.3333 9.125C11.3333 9.8875 11.0348 10.6188 10.5035 11.1579C9.97212 11.6971 9.25145 12 8.5 12ZM8.5 13.4375C9.62717 13.4375 10.7082 12.9831 11.5052 12.1744C12.3022 11.3656 12.75 10.2687 12.75 9.125C12.75 7.98125 12.3022 6.88435 11.5052 6.0756C10.7082 5.26685 9.62717 4.8125 8.5 4.8125C7.37283 4.8125 6.29183 5.26685 5.4948 6.0756C4.69777 6.88435 4.25 7.98125 4.25 9.125C4.25 10.2687 4.69777 11.3656 5.4948 12.1744C6.29183 12.9831 7.37283 13.4375 8.5 13.4375Z" fill="#B0B0B0"/>
</svg>
