<svg width="17" height="17" viewBox="0 0 17 17" fill="none" xmlns="http://www.w3.org/2000/svg">
<path fill-rule="evenodd" clip-rule="evenodd" d="M14.32 5.24668L14.2267 5.08001C14.1063 4.87847 13.9365 4.71096 13.7333 4.59334L9.26 2.01334C9.05746 1.89584 8.82753 1.83376 8.59333 1.83334H8.4C8.1658 1.83376 7.93586 1.89584 7.73333 2.01334L3.26 4.60001C3.05798 4.71685 2.89017 4.88466 2.77333 5.08668L2.68 5.25334C2.5625 5.4559 2.50041 5.68584 2.5 5.92001V11.0867C2.50041 11.3209 2.5625 11.5508 2.68 11.7533L2.77333 11.92C2.89319 12.1197 3.06033 12.2868 3.26 12.4067L7.74 14.9867C7.94153 15.1066 8.17213 15.1689 8.40666 15.1667H8.59333C8.82753 15.1663 9.05746 15.1042 9.26 14.9867L13.7333 12.4C13.9373 12.2858 14.1058 12.1173 14.22 11.9133L14.32 11.7467C14.4361 11.5435 14.4981 11.314 14.5 11.08V5.91334C14.4996 5.67917 14.4375 5.44924 14.32 5.24668ZM8.4 3.16668H8.59333L12.5 5.42001L8.5 7.72668L4.5 5.42001L8.4 3.16668ZM9.16666 13.5L13.0667 11.2467L13.1667 11.08V6.57334L9.16666 8.88668V13.5Z" fill="black"/>
</svg>
