<svg width="19" height="20" viewBox="0 0 19 20" fill="none" xmlns="http://www.w3.org/2000/svg">
<path d="M9.5 10C10.7598 10 11.968 9.49955 12.8588 8.60876C13.7496 7.71796 14.25 6.50978 14.25 5.25C14.25 3.99022 13.7496 2.78204 12.8588 1.89124C11.968 1.00045 10.7598 0.5 9.5 0.5C8.24022 0.5 7.03204 1.00045 6.14124 1.89124C5.25045 2.78204 4.75 3.99022 4.75 5.25C4.75 6.50978 5.25045 7.71796 6.14124 8.60876C7.03204 9.49955 8.24022 10 9.5 10ZM12.6667 5.25C12.6667 6.08985 12.333 6.89531 11.7392 7.48917C11.1453 8.08304 10.3399 8.41667 9.5 8.41667C8.66015 8.41667 7.85469 8.08304 7.26083 7.48917C6.66696 6.89531 6.33333 6.08985 6.33333 5.25C6.33333 4.41015 6.66696 3.60469 7.26083 3.01083C7.85469 2.41696 8.66015 2.08333 9.5 2.08333C10.3399 2.08333 11.1453 2.41696 11.7392 3.01083C12.333 3.60469 12.6667 4.41015 12.6667 5.25ZM19 17.9167C19 19.5 17.4167 19.5 17.4167 19.5H1.58333C1.58333 19.5 0 19.5 0 17.9167C0 16.3333 1.58333 11.5833 9.5 11.5833C17.4167 11.5833 19 16.3333 19 17.9167ZM17.4167 17.9103C17.4151 17.5208 17.1728 16.3492 16.0993 15.2757C15.067 14.2433 13.1243 13.1667 9.5 13.1667C5.87417 13.1667 3.933 14.2433 2.90067 15.2757C1.82717 16.3492 1.5865 17.5208 1.58333 17.9103H17.4167Z" fill="black"/>
</svg>
